<svg width="24" height="20" viewBox="0 0 24 20" fill="none" xmlns="http://www.w3.org/2000/svg">
<path d="M7.2265 19.6441C5.78245 19.6441 4.5189 19.3267 3.43586 18.6918C2.35282 18.0569 1.5063 17.1668 0.896311 16.0215C0.29877 14.8638 0 13.5069 0 11.9508C0 10.3823 0.311219 9.02535 0.933657 7.88006C1.55609 6.72233 2.41506 5.82602 3.51055 5.19113C4.60604 4.55624 5.86337 4.2388 7.28252 4.2388C8.83862 4.2388 10.1582 4.58736 11.2412 5.2845C12.3367 5.98163 13.1334 6.95885 13.6314 8.21618C13.6438 8.24108 13.6501 8.27842 13.6501 8.32822C13.6501 8.4527 13.5878 8.53362 13.4633 8.57097L11.2039 9.18718C11.0918 9.18718 11.0172 9.13116 10.9798 9.01912C10.6312 8.33444 10.1457 7.81159 9.5233 7.45058C8.90086 7.08957 8.16639 6.90906 7.31987 6.90906C6.37376 6.90906 5.56459 7.12069 4.89236 7.54395C4.22013 7.95475 3.70351 8.53985 3.34249 9.29922C2.99393 10.0461 2.81964 10.93 2.81964 11.9508C2.81964 12.9592 3.00015 13.843 3.36116 14.6024C3.72218 15.3493 4.2388 15.9344 4.91104 16.3577C5.58327 16.7685 6.38621 16.9739 7.31987 16.9739C8.26598 16.9739 9.08137 16.7498 9.76605 16.3016C10.4507 15.8535 10.9611 15.1626 11.2972 14.2289C11.347 14.0671 11.4529 14.0049 11.6147 14.0422L13.7621 14.6584C13.9239 14.6958 13.9862 14.7829 13.9488 14.9198C13.6874 15.841 13.2579 16.6627 12.6604 17.3847C12.0628 18.0943 11.3097 18.6482 10.4009 19.0466C9.49218 19.445 8.43403 19.6441 7.2265 19.6441Z" fill="white"/>
<path d="M17.4305 0C18.7432 0 19.8919 0.288584 20.8765 0.865754C21.8611 1.44292 22.6306 2.25209 23.1852 3.29326C23.7284 4.34575 24 5.57931 24 6.99394C24 8.41989 23.7171 9.65344 23.1512 10.6946C22.5854 11.7471 21.8045 12.5619 20.8086 13.1391C19.8127 13.7163 18.6697 14.0049 17.3795 14.0049C15.9649 14.0049 14.7653 13.688 13.7807 13.0542C12.7848 12.4205 12.0605 11.5321 11.6078 10.3891C11.5965 10.3664 11.5909 10.3325 11.5909 10.2872C11.5909 10.174 11.6474 10.1005 11.7606 10.0665L13.8147 9.50632C13.9165 9.50632 13.9844 9.55725 14.0184 9.6591C14.3352 10.2815 14.7766 10.7569 15.3425 11.0851C15.9083 11.4132 16.576 11.5773 17.3456 11.5773C18.2057 11.5773 18.9413 11.385 19.5524 11.0002C20.1635 10.6267 20.6332 10.0948 20.9614 9.40447C21.2782 8.72545 21.4367 7.92194 21.4367 6.99394C21.4367 6.07726 21.2726 5.27375 20.9444 4.58341C20.6162 3.90438 20.1465 3.37248 19.5354 2.9877C18.9243 2.61424 18.1944 2.42751 17.3456 2.42751C16.4855 2.42751 15.7442 2.63121 15.1218 3.03863C14.4993 3.44604 14.0353 4.07414 13.7298 4.92292C13.6845 5.07004 13.5883 5.12662 13.4412 5.09267L11.489 4.53248C11.3419 4.49853 11.2853 4.41931 11.3192 4.29482C11.5569 3.45736 11.9473 2.71043 12.4906 2.05404C13.0338 1.40897 13.7185 0.905364 14.5446 0.543218C15.3707 0.181073 16.3327 0 17.4305 0Z" fill="white"/>
<path d="M17.117 7.78047H18.6731V15.5609H17.117V7.78047Z" fill="white"/>
<path d="M6.22438 3.11219H7.78047V10.8927H6.22438V3.11219Z" fill="white"/>
</svg>
