<svg width="123" height="115" viewBox="0 0 123 115" fill="none" xmlns="http://www.w3.org/2000/svg">
<path fill-rule="evenodd" clip-rule="evenodd" d="M64.3518 4.88744C65.7518 2.17494 62.5143 -1.06256 59.8018 0.337443C57.6143 1.21244 57.0893 4.36244 58.7518 6.02494C60.3268 7.68744 63.4768 7.07494 64.2643 4.88744H64.3518ZM34.6018 6.11244C34.7768 4.36244 32.6768 2.78744 31.1018 3.48744C28.8268 4.09994 28.5643 7.68744 30.7518 8.56244C32.4143 9.52494 34.7768 8.03744 34.6018 6.11244ZM89.9018 8.64994C87.3643 8.29994 86.9268 4.27494 89.3768 3.48744C91.3018 2.52494 92.9643 4.27494 93.3143 6.11244C92.8768 7.68744 91.6518 9.08744 89.9018 8.64994ZM43.7893 19.9374C44.2268 16.7874 40.3768 14.1624 37.6643 15.9124C35.1268 17.2249 34.7768 21.1624 37.0518 22.8249C39.4143 25.0124 43.7018 23.1749 43.7893 19.9374ZM79.0518 17.7499C80.2768 14.5999 85.1768 14.5124 86.5768 17.5749C87.9768 19.9374 86.2268 22.9124 83.8643 23.6999C80.6268 24.3124 77.5643 20.8124 79.1393 17.7499H79.0518ZM61.3768 18.6249C58.8393 18.7999 56.3893 20.8124 56.3893 23.5249C56.2143 25.7124 57.7893 27.5499 59.6268 28.4249H60.1518C61.2018 28.5124 62.2518 28.5999 63.2143 28.0749C65.6643 27.0249 66.8893 23.6999 65.4893 21.3374C64.7893 19.5874 62.9518 18.8874 61.2018 18.5374L61.3768 18.6249ZM13.6893 27.4624C16.1393 25.8874 19.4643 28.7749 18.5893 31.4874C18.0643 33.8499 14.9143 34.8124 13.1643 33.3249C11.2393 31.9249 11.5893 28.5124 13.6893 27.5499V27.4624ZM110.727 30.3499C110.989 27.6374 107.489 25.7999 105.389 27.4624C103.202 28.7749 103.464 32.3624 105.739 33.4124C107.839 34.6374 110.814 32.7999 110.639 30.3499H110.727ZM68.3768 32.2749C71.8768 31.0499 75.9893 32.5374 77.9143 35.6874C80.5393 39.5374 79.1393 45.3124 75.1143 47.4999C70.9143 50.1249 64.7893 47.9374 63.2143 43.1249C61.4643 38.9249 64.0018 33.5874 68.3768 32.2749ZM58.9268 36.3874C57.0893 32.4499 51.9268 30.8749 48.0768 32.7124C43.9643 34.5499 42.1268 39.9749 44.2268 43.9999C46.1518 48.1124 51.6643 49.8624 55.5143 47.5874C59.4518 45.5749 61.1143 40.2374 58.9268 36.2999V36.3874ZM27.6893 39.7124C27.9518 37.1749 30.3143 35.5999 32.6768 35.4249C35.2143 35.7749 37.2268 37.6999 37.4893 40.3249C37.3143 42.8624 35.3893 45.3999 32.6768 45.3999C29.7018 45.6624 27.0768 42.6874 27.6893 39.7124ZM94.9768 40.3249C95.1518 36.8249 90.8643 34.1999 87.8018 35.9499C84.5643 37.5249 84.3018 42.6874 87.4518 44.5249C90.5143 46.7124 95.1518 44.0874 94.9768 40.3249ZM39.7643 49.1624C43.3518 48.1999 47.3768 49.8624 49.1268 53.1874C51.0518 56.5124 50.2643 61.1499 47.2893 63.5999C43.4393 67.1874 36.4393 65.6999 34.4268 60.8874C32.0643 56.4249 34.9518 50.3874 39.7643 49.2499V49.1624ZM87.7143 52.6624C85.8768 49.5124 81.7643 48.1124 78.3518 49.1624C73.4518 50.4749 70.9143 56.7749 73.4518 61.1499C75.5518 65.4374 81.5018 66.8374 85.3518 64.1249C89.0268 61.7624 90.1643 56.3374 87.7143 52.6624ZM16.8393 53.2749C19.9018 52.1374 23.3143 55.5499 22.0893 58.6124C21.3018 61.4124 17.4518 62.4624 15.3518 60.3624C12.9893 58.4374 13.8643 54.0624 16.8393 53.2749ZM104.602 52.7499C101.977 52.9249 100.139 55.1999 100.227 57.7374C100.752 58.9624 101.364 60.1874 102.589 60.7999C105.127 62.1999 108.802 60.1874 108.627 57.1249C108.802 54.8499 106.702 53.0999 104.602 52.7499ZM1.70182 54.7624C3.53932 53.9749 5.81432 55.5499 5.37682 57.6499C5.28932 60.0124 1.87682 60.8874 0.564319 58.9624C-0.573181 57.5624 0.126819 55.4624 1.61432 54.7624H1.70182ZM122.277 55.9874C121.752 54.4124 119.652 53.7999 118.339 54.6749C116.152 55.8124 117.027 59.9249 119.652 59.6624C121.489 59.9249 123.152 57.6499 122.277 55.9874ZM49.7393 65.9624C54.6393 64.6499 59.8018 68.7624 59.8893 73.8374C60.2393 78.9999 55.0768 83.4624 50.0893 82.325C48.1673 81.9544 46.4378 80.9175 45.2053 79.3969C43.9728 77.8763 43.3164 75.9695 43.3518 74.0125C43.3518 70.2499 46.1518 66.7499 49.8268 65.9624H49.7393ZM79.3143 73.9249C79.3143 68.7625 73.9768 64.5624 69.0768 65.9624C66.1893 66.6624 63.6518 69.1124 63.0393 72.1749C61.7268 76.6375 65.1393 81.7999 69.7768 82.4125C74.6768 83.3749 79.6643 78.9999 79.4018 74.0125L79.3143 73.9249ZM31.8893 69.1124C35.3018 68.4999 38.5393 72.3499 37.1393 75.6749C36.0893 79.1749 31.1018 80.1375 28.8268 77.2499C26.2018 74.5375 28.1268 69.4624 31.8893 69.1124ZM94.9768 74.0125C95.2393 70.6874 91.4768 67.9749 88.4143 69.2874C84.7393 70.5124 84.1268 76.1124 87.4518 78.0375C90.4268 80.225 95.0643 77.6874 94.9768 73.9249V74.0125ZM104.252 85.2999C103.027 83.0249 105.214 80.0499 107.664 80.4874C108.802 80.4874 109.677 81.3624 110.377 82.1499V82.325L110.552 82.5874C110.727 83.8999 110.902 85.2999 109.852 86.3499C108.364 88.2749 105.039 87.7499 104.164 85.4749L104.252 85.2999ZM18.7643 84.6C19.2893 81.8875 15.9643 79.5249 13.6893 81.0999C11.5018 82.2374 11.4143 85.7374 13.5143 87.0499C15.5268 88.45 18.5018 87.0499 18.7643 84.6ZM59.2768 86.1749C62.3393 84.8624 66.1893 87.4874 65.8393 90.8125C66.1018 94.4874 61.2893 97.1124 58.3143 94.8374C54.9893 92.9125 55.6018 87.3125 59.1893 86.0874L59.2768 86.1749ZM43.9643 95.0999C44.2268 92.2124 40.7268 89.85 38.1893 91.1625C36.3518 91.8624 35.6518 93.8749 35.5643 95.7124C36.1768 97.3749 37.4893 99.125 39.4143 99.2124C41.7768 99.5625 44.0518 97.5499 43.9643 95.0999ZM80.9768 91.2499C83.6018 89.5874 87.3643 91.95 87.1018 95.0999C87.1018 98.3374 82.9018 100.437 80.4518 98.3374C78.0893 96.6749 78.3518 92.6499 80.9768 91.3374V91.2499ZM90.5143 105.425C88.5893 105.862 87.1893 107.962 88.4143 109.8C89.6393 111.9 93.1393 111.112 93.4018 108.662C93.7518 106.825 92.0893 105.687 90.6018 105.337L90.5143 105.425ZM29.2643 108.225C29.7018 106.825 30.8393 105.337 32.5018 105.775C34.9518 105.95 35.6518 109.625 33.5518 110.762C31.6268 112.075 29.4393 110.325 29.2643 108.225ZM62.7768 107.875C61.0268 106.737 58.3143 107.787 57.7893 109.887C56.9143 111.987 59.0143 114.612 61.2018 114.35C62.4268 114.35 63.3893 113.475 64.0893 112.6C64.2643 111.987 64.3518 111.462 64.5268 110.85C64.2643 109.712 63.9143 108.4 62.6893 107.875H62.7768Z" fill="white"/>
</svg>
