<svg width="191" height="160" viewBox="0 0 191 160" fill="none" xmlns="http://www.w3.org/2000/svg">
<path d="M47.6652 159.625H15.7486C9.02321 159.625 5.69747 159.625 3.69146 158.422C2.6145 157.794 1.71379 156.904 1.0731 155.835C0.437468 154.79 0.0710667 153.604 0.00675227 152.383C-0.119943 150.102 1.53765 147.368 4.86339 141.825L83.731 10.2625C87.1095 4.66684 88.841 1.87955 90.9843 0.855436C92.1292 0.292649 93.388 0 94.6637 0C95.9395 0 97.1982 0.292649 98.3431 0.855436C100.476 1.87955 102.144 4.66685 105.47 10.252L121.75 37.048L121.803 37.1641C124.474 40.9649 126.596 45.0825 128.095 49.4113C128.993 52.8426 128.993 56.5484 128.095 60.022C126.588 64.4211 124.47 68.5864 121.803 72.3958L80.3525 141.73L80.2363 141.951C78.0921 146.115 75.3693 149.954 72.149 153.354C69.3308 155.866 65.9869 157.716 62.3618 158.77C58.9832 159.615 55.2246 159.625 47.6652 159.625ZM128.402 159.615H174.117C180.959 159.615 184.337 159.615 186.364 158.348C187.432 157.72 188.326 156.834 188.962 155.772C189.597 154.727 189.964 153.541 190.028 152.319C190.155 150.102 188.55 147.473 185.351 142.279L184.992 141.719L162.071 104.661L161.828 104.207C158.618 99.0651 156.961 96.4468 154.881 95.4226C153.747 94.8526 152.496 94.5557 151.228 94.5557C149.959 94.5557 148.708 94.8526 147.575 95.4226C145.442 96.4468 143.774 99.1918 140.448 104.65L117.516 141.772V141.888C114.138 147.346 112.48 150.092 112.596 152.319C112.66 153.549 113.031 154.743 113.673 155.793C114.307 156.849 115.204 157.746 116.27 158.411C118.245 159.604 121.623 159.615 128.402 159.615Z" fill="white"/>
</svg>
