<svg width="132" height="191" viewBox="0 0 132 191" fill="none" xmlns="http://www.w3.org/2000/svg">
<path d="M42.2316 168.927V190.042H52.7896V168.927H73.9054V190.042H84.4633V168.927H89.7422C113.075 168.927 131.974 150.028 131.974 126.695C131.974 112.758 125.111 100.511 114.659 92.804C122.049 85.2023 126.695 74.8556 126.695 63.3475C126.695 40.0145 107.796 21.1158 84.4633 21.1158V0H73.9054V21.1158H52.7896V0H42.2316V21.1158H0V42.2316H21.1158V147.811H0V168.927H42.2316ZM84.4633 42.2316C96.077 42.2316 105.579 51.7338 105.579 63.3475C105.579 74.9612 96.077 84.4633 84.4633 84.4633H42.2316V42.2316H84.4633ZM42.2316 105.579H89.7422C101.356 105.579 110.858 115.081 110.858 126.695C110.858 138.309 101.356 147.811 89.7422 147.811H42.2316V105.579Z" fill="white"/>
</svg>
