<svg width="132" height="140" viewBox="0 0 132 140" fill="none" xmlns="http://www.w3.org/2000/svg">
<path d="M65.8271 0C79.7688 0 91.0738 6.57417 91.0738 14.6825C91.0738 22.7908 79.7688 29.365 65.8271 29.365C51.8855 29.365 40.5805 22.7908 40.5805 14.6825C40.5805 6.57417 51.8855 0 65.8271 0ZM65.8271 110.635C79.7688 110.635 91.0738 117.209 91.0738 125.318C91.0738 133.426 79.7688 140 65.8271 140C51.8855 140 40.5805 133.426 40.5805 125.318C40.5805 117.209 51.8855 110.635 65.8271 110.635ZM5.19548 35C12.1605 22.925 23.518 16.4267 30.5471 20.4808C37.5763 24.535 37.6171 37.6133 30.6463 49.6883C23.6755 61.7633 12.3238 68.25 5.30048 64.2075C-1.72285 60.165 -1.77535 47.075 5.19548 35ZM101.02 90.3175C108.02 78.2425 119.33 71.7442 126.354 75.7983C133.377 79.8525 133.418 92.925 126.447 105C119.476 117.075 108.13 123.579 101.107 119.525C94.0838 115.471 94.043 102.393 101.02 90.3175ZM5.30048 75.7925C12.3296 71.7092 23.6755 78.2367 30.6521 90.3117C37.6288 102.387 37.5763 115.459 30.5471 119.519C23.518 123.579 12.1605 117.075 5.20131 105C-1.75785 92.925 -1.72285 79.8525 5.30048 75.7925ZM101.113 20.4867C108.113 16.4325 119.482 22.9308 126.453 35.0058C133.424 47.0808 133.383 60.1533 126.36 64.2133C119.336 68.2733 107.996 61.7633 101.025 49.6883C94.0546 37.6133 94.0955 24.5408 101.113 20.4867Z" fill="white"/>
</svg>
