<svg width="191" height="159" viewBox="0 0 191 159" fill="none" xmlns="http://www.w3.org/2000/svg">
<path fill-rule="evenodd" clip-rule="evenodd" d="M7.13488 59.705H159.01C160.911 59.705 162.653 60.4968 164.078 61.9222L188.15 86.6277C192.585 91.2204 189.417 98.9804 183.082 98.9804H31.2069C29.3065 98.9804 27.5644 98.1886 26.1391 96.7633L2.06708 72.0578C-2.36724 67.4651 0.800129 59.705 7.13488 59.705ZM2.06708 26.9227L26.1391 2.21716C27.4061 0.791845 29.3065 0 31.2069 0H182.924C189.259 0 192.426 7.76007 187.992 12.3528L164.078 37.0583C162.811 38.4836 160.911 39.2754 159.01 39.2754H7.13488C0.800129 39.2754 -2.36724 31.5154 2.06708 26.9227ZM187.992 131.604L163.92 156.31C162.495 157.735 160.753 158.527 158.852 158.527H7.13488C0.800129 158.527 -2.36724 150.767 2.06708 146.174L26.1391 121.469C27.4061 120.043 29.3065 119.252 31.2069 119.252H182.924C189.259 119.252 192.426 127.012 187.992 131.604Z" fill="white"/>
</svg>
